<?xml version="1.0" encoding="UTF-8"?>
<svg width="1029px" height="101px" viewBox="0 0 1029 101" version="1.1" xmlns="http://www.w3.org/2000/svg" xmlns:xlink="http://www.w3.org/1999/xlink">
    <!-- Generator: Sketch 52.6 (67491) - http://www.bohemiancoding.com/sketch -->
    <title>Group</title>
    <desc>Created with Sketch.</desc>
    <g id="Logo-v2" stroke="none" stroke-width="1" fill="none" fill-rule="evenodd">
        <g id="Horizontal-Logo-Gray" transform="translate(-280.000000, -361.000000)">
            <g id="Group" transform="translate(280.000000, 348.000000)">
                <g id="gdg-logo" transform="translate(0.000000, 13.000000)">
                    <path d="M50.0525231,51 L83.7162547,31.3253495 C91.6351837,26.69207 94.3521385,16.4182764 89.7797025,8.39397357 C85.2072665,0.369670715 75.0683867,-2.38343738 67.1494577,2.24984209 L9,36.2607994 L50.0525231,51 Z" id="Path" fill="#EA4335"></path>
                    <path d="M75.2967999,101 C81.0759862,101 86.688144,98.0044865 89.7614685,92.6791292 C94.3714552,84.7243767 91.6321877,74.5396308 83.6482252,69.9465102 L25.0546254,36.2303417 C17.0706628,31.637221 6.8485183,34.3664666 2.23853154,42.3212191 C-2.37145521,50.2759716 0.367812283,60.4607174 8.35177485,65.0538381 L66.9787803,98.7700066 C69.6178307,100.267763 72.490721,101 75.2967999,101 Z" id="Path" fill="#4285F4"></path>
                    <path d="M133.57376,101 C136.39124,101 139.241867,100.265707 141.82732,98.7637435 L200,64.9528796 L159.461431,50 L125.287053,69.8592932 C117.364962,74.4653141 114.646922,84.6786649 119.221184,92.6557592 C122.270692,97.9960733 127.839359,101 133.57376,101 Z" id="Path" fill="#FBBC04"></path>
                    <path d="M192.2968,67 C198.075986,67 203.688144,64.0044865 206.761468,58.6791292 C211.371455,50.7243767 208.632188,40.5396308 200.648225,35.9465102 L142.02122,2.23034167 C134.037257,-2.36277902 123.848518,0.366466607 119.238532,8.32121909 C114.628545,16.2759716 117.367812,26.4607174 125.351775,31.0538381 L183.97878,64.7700066 C186.584425,66.2677634 189.457315,67 192.2968,67 Z" id="Path" fill="#0F9D58"></path>
                </g>
                <path d="M327.144,65.784 C327.144,76.184052 324.058698,84.4693025 317.888,90.64 C310.954632,97.9893701 301.83739,101.664 290.536,101.664 C279.719946,101.664 270.568037,97.9200374 263.08,90.432 C255.591963,82.9439626 251.848,73.7227214 251.848,62.768 C251.848,51.8132786 255.591963,42.5920374 263.08,35.104 C270.568037,27.6159626 279.719946,23.872 290.536,23.872 C296.013361,23.872 301.178642,24.842657 306.032,26.784 C310.885358,28.725343 314.871984,31.4639823 317.992,35 L311.128,41.864 C308.839989,39.0906528 305.876018,36.9240078 302.236,35.364 C298.595982,33.8039922 294.696021,33.024 290.536,33.024 C282.423959,33.024 275.560028,35.8319719 269.944,41.448 C264.397306,47.1333618 261.624,54.2399574 261.624,62.768 C261.624,71.2960426 264.397306,78.4026382 269.944,84.088 C275.560028,89.7040281 282.423959,92.512 290.536,92.512 C297.954704,92.512 304.125309,90.4320208 309.048,86.272 C313.970691,82.1119792 316.81333,76.3920364 317.576,69.112 L290.536,69.112 L290.536,60.168 L326.624,60.168 C326.970668,62.109343 327.144,63.9813243 327.144,65.784 Z M338.792,100 L338.792,25.536 L361.568,25.536 C372.938724,25.536 382.073299,28.9679657 388.972,35.832 C395.870701,42.6960343 399.32,51.6746112 399.32,62.768 C399.32,73.9307225 395.870701,82.9266325 388.972,89.756 C382.073299,96.5853675 372.938724,100 361.568,100 L338.792,100 Z M348.36,34.688 L348.36,90.848 L361.568,90.848 C370.23471,90.848 377.063975,88.3693581 382.056,83.412 C387.048025,78.4546419 389.544,71.5733774 389.544,62.768 C389.544,54.0319563 387.048025,47.168025 382.056,42.176 C377.063975,37.183975 370.23471,34.688 361.568,34.688 L348.36,34.688 Z M482.312,65.784 C482.312,76.184052 479.226698,84.4693025 473.056,90.64 C466.122632,97.9893701 457.00539,101.664 445.704,101.664 C434.887946,101.664 425.736037,97.9200374 418.248,90.432 C410.759963,82.9439626 407.016,73.7227214 407.016,62.768 C407.016,51.8132786 410.759963,42.5920374 418.248,35.104 C425.736037,27.6159626 434.887946,23.872 445.704,23.872 C451.181361,23.872 456.346642,24.842657 461.2,26.784 C466.053358,28.725343 470.039984,31.4639823 473.16,35 L466.296,41.864 C464.007989,39.0906528 461.044018,36.9240078 457.404,35.364 C453.763982,33.8039922 449.864021,33.024 445.704,33.024 C437.591959,33.024 430.728028,35.8319719 425.112,41.448 C419.565306,47.1333618 416.792,54.2399574 416.792,62.768 C416.792,71.2960426 419.565306,78.4026382 425.112,84.088 C430.728028,89.7040281 437.591959,92.512 445.704,92.512 C453.122704,92.512 459.293309,90.4320208 464.216,86.272 C469.138691,82.1119792 471.98133,76.3920364 472.744,69.112 L445.704,69.112 L445.704,60.168 L481.792,60.168 C482.138668,62.109343 482.312,63.9813243 482.312,65.784 Z M526.408,69.84 L526.408,100 L516.84,100 L516.84,25.536 L542.216,25.536 C548.664032,25.536 554.141311,27.6853118 558.648,31.984 C563.224023,36.2826882 565.512,41.5173025 565.512,47.688 C565.512,53.9973649 563.224023,59.2666455 558.648,63.496 C554.210644,67.7253545 548.733366,69.84 542.216,69.84 L526.408,69.84 Z M526.408,34.688 L526.408,60.688 L542.424,60.688 C546.237352,60.688 549.391988,59.4053462 551.888,56.84 C554.453346,54.2746538 555.736,51.2240177 555.736,47.688 C555.736,44.221316 554.453346,41.2053462 551.888,38.64 C549.391988,36.0053202 546.237352,34.688 542.424,34.688 L526.408,34.688 Z M570.92,74.52 C570.92,66.6852942 573.381309,60.2026923 578.304,55.072 C583.296025,49.9413077 589.570629,47.376 597.128,47.376 C604.685371,47.376 610.925309,49.9413077 615.848,55.072 C620.840025,60.2026923 623.336,66.6852942 623.336,74.52 C623.336,82.4240395 620.840025,88.9066414 615.848,93.968 C610.925309,99.0986923 604.685371,101.664 597.128,101.664 C589.570629,101.664 583.296025,99.0986923 578.304,93.968 C573.381309,88.8373077 570.92,82.3547058 570.92,74.52 Z M580.488,74.52 C580.488,79.9973607 582.082651,84.4346497 585.272,87.832 C588.461349,91.2293503 592.41331,92.928 597.128,92.928 C601.84269,92.928 605.794651,91.2293503 608.984,87.832 C612.173349,84.4346497 613.768,79.9973607 613.768,74.52 C613.768,69.111973 612.173349,64.7093503 608.984,61.312 C605.725317,57.845316 601.773357,56.112 597.128,56.112 C592.482643,56.112 588.530683,57.845316 585.272,61.312 C582.082651,64.7093503 580.488,69.111973 580.488,74.52 Z M632.072,49.04 L641.224,49.04 L641.224,56.112 L641.64,56.112 C643.096007,53.6159875 645.331985,51.5360083 648.348,49.872 C651.364015,48.2079917 654.501317,47.376 657.76,47.376 C664.000031,47.376 668.801317,49.1613155 672.164,52.732 C675.526683,56.3026845 677.208,61.3813004 677.208,67.968 L677.208,100 L667.64,100 L667.64,68.592 C667.431999,60.2719584 663.237374,56.112 655.056,56.112 C651.242648,56.112 648.053346,57.6546512 645.488,60.74 C642.922654,63.8253488 641.64,67.5173118 641.64,71.816 L641.64,100 L632.072,100 L632.072,49.04 Z M708.616,100.832 C704.455979,100.832 701.00668,99.5493462 698.268,96.984 C695.52932,94.4186538 694.125334,90.8480229 694.056,86.272 L694.056,57.776 L685.112,57.776 L685.112,49.04 L694.056,49.04 L694.056,33.44 L703.624,33.44 L703.624,49.04 L716.104,49.04 L716.104,57.776 L703.624,57.776 L703.624,83.152 C703.624,86.5493503 704.28266,88.8546606 705.6,90.068 C706.91734,91.2813394 708.407992,91.888 710.072,91.888 C710.83467,91.888 711.579996,91.8013342 712.308,91.628 C713.036004,91.4546658 713.711997,91.2293347 714.336,90.952 L717.352,99.48 C714.855988,100.381338 711.944017,100.832 708.616,100.832 Z M748.136,101.664 C740.647963,101.664 734.477358,99.0986923 729.624,93.968 C724.770642,88.8373077 722.344,82.3547058 722.344,74.52 C722.344,66.7546278 724.70131,60.2893592 729.416,55.124 C734.13069,49.9586408 740.16263,47.376 747.512,47.376 C755.069371,47.376 761.083978,49.8199756 765.556,54.708 C770.028022,59.5960244 772.264,66.4426226 772.264,75.248 L772.16,76.288 L732.12,76.288 C732.258667,81.280025 733.922651,85.3013181 737.112,88.352 C740.301349,91.4026819 744.114644,92.928 748.552,92.928 C754.653364,92.928 759.437316,89.8773638 762.904,83.776 L771.432,87.936 C769.143989,92.2346882 765.97202,95.5973212 761.916,98.024 C757.85998,100.450679 753.266692,101.664 748.136,101.664 Z M732.848,68.384 L762.072,68.384 C761.794665,64.8479823 760.356013,61.9186783 757.756,59.596 C755.155987,57.2733217 751.672022,56.112 747.304,56.112 C743.698649,56.112 740.596013,57.2213222 737.996,59.44 C735.395987,61.6586778 733.680004,64.6399813 732.848,68.384 Z M805.752,100 L796.184,100 L775.592,49.04 L785.992,49.04 L800.968,88.56 L801.176,88.56 L816.36,49.04 L826.552,49.04 L805.752,100 Z M855.672,101.664 C848.183963,101.664 842.013358,99.0986923 837.16,93.968 C832.306642,88.8373077 829.88,82.3547058 829.88,74.52 C829.88,66.7546278 832.23731,60.2893592 836.952,55.124 C841.66669,49.9586408 847.69863,47.376 855.048,47.376 C862.605371,47.376 868.619978,49.8199756 873.092,54.708 C877.564022,59.5960244 879.8,66.4426226 879.8,75.248 L879.696,76.288 L839.656,76.288 C839.794667,81.280025 841.458651,85.3013181 844.648,88.352 C847.837349,91.4026819 851.650644,92.928 856.088,92.928 C862.189364,92.928 866.973316,89.8773638 870.44,83.776 L878.968,87.936 C876.679989,92.2346882 873.50802,95.5973212 869.452,98.024 C865.39598,100.450679 860.802692,101.664 855.672,101.664 Z M840.384,68.384 L869.608,68.384 C869.330665,64.8479823 867.892013,61.9186783 865.292,59.596 C862.691987,57.2733217 859.208022,56.112 854.84,56.112 C851.234649,56.112 848.132013,57.2213222 845.532,59.44 C842.931987,61.6586778 841.216004,64.6399813 840.384,68.384 Z M911.416,92.928 C916.13069,92.928 919.978652,91.2293503 922.96,87.832 C926.080016,84.4346497 927.64,79.9973607 927.64,74.52 C927.64,69.1813066 926.080016,64.778684 922.96,61.312 C919.909318,57.845316 916.061357,56.112 911.416,56.112 C906.839977,56.112 902.992016,57.845316 899.872,61.312 C896.751984,64.778684 895.192,69.1813066 895.192,74.52 C895.192,79.928027 896.751984,84.3306497 899.872,87.728 C902.992016,91.194684 906.839977,92.928 911.416,92.928 Z M909.856,101.664 C903.199967,101.664 897.480024,99.0293597 892.696,93.76 C887.98131,88.4213066 885.624,82.0080374 885.624,74.52 C885.624,67.0319626 887.98131,60.6186934 892.696,55.28 C897.480024,50.0106403 903.199967,47.376 909.856,47.376 C913.600019,47.376 917.014651,48.1733254 920.1,49.768 C923.185349,51.3626746 925.559992,53.4773202 927.224,56.112 L927.64,56.112 L927.224,49.04 L927.224,25.536 L936.792,25.536 L936.792,100 L927.64,100 L927.64,92.928 L927.224,92.928 C925.559992,95.5626798 923.185349,97.6773254 920.1,99.272 C917.014651,100.866675 913.600019,101.664 909.856,101.664 Z M958.008,100 L948.44,100 L948.44,49.04 L957.592,49.04 L957.592,57.36 L958.008,57.36 C958.978672,54.6559865 960.971985,52.3506762 963.988,50.444 C967.004015,48.5373238 969.967985,47.584 972.88,47.584 C975.653347,47.584 978.010657,47.9999958 979.952,48.832 L977.04,58.088 C975.861327,57.6026642 973.989346,57.36 971.424,57.36 C967.818649,57.36 964.681347,58.8159854 962.012,61.728 C959.342653,64.6400146 958.008,68.0373139 958.008,71.92 L958.008,100 Z M993.16,84.4 C993.16,86.8960125 994.217323,88.9759917 996.332,90.64 C998.446677,92.3040083 1000.92532,93.136 1003.768,93.136 C1007.78935,93.136 1011.37732,91.6453482 1014.532,88.664 C1017.68668,85.6826518 1019.264,82.1813534 1019.264,78.16 C1016.28265,75.8026549 1012.12269,74.624 1006.784,74.624 C1002.90131,74.624 999.660013,75.5599906 997.06,77.432 C994.459987,79.3040094 993.16,81.6266528 993.16,84.4 Z M1005.536,47.376 C1012.60804,47.376 1018.18931,49.2653144 1022.28,53.044 C1026.37069,56.8226856 1028.416,62.0053004 1028.416,68.592 L1028.416,100 L1019.264,100 L1019.264,92.928 L1018.848,92.928 C1014.89598,98.7520291 1009.6267,101.664 1003.04,101.664 C997.423972,101.664 992.726686,100.000017 988.948,96.672 C985.169314,93.3439834 983.28,89.184025 983.28,84.192 C983.28,78.9226403 985.273313,74.7280156 989.26,71.608 C993.246687,68.4879844 998.567967,66.928 1005.224,66.928 C1010.90936,66.928 1015.58931,67.9679896 1019.264,70.048 L1019.264,67.864 C1019.264,64.5359834 1017.94668,61.7106783 1015.312,59.388 C1012.67732,57.0653217 1009.59202,55.904 1006.056,55.904 C1000.71731,55.904 996.488016,58.1573108 993.368,62.664 L984.944,57.36 C989.589357,50.7039667 996.453288,47.376 1005.536,47.376 Z" id="GDG-Pontevedra" fill="#757575"></path>
            </g>
        </g>
    </g>
</svg>