<?xml version="1.0" encoding="UTF-8"?>
<svg width="1014px" height="111px" viewBox="0 0 1014 111" version="1.1" xmlns="http://www.w3.org/2000/svg" xmlns:xlink="http://www.w3.org/1999/xlink">
    <!-- Generator: Sketch 51.3 (57544) - http://www.bohemiancoding.com/sketch -->
    <title>Logo</title>
    <desc>Created with Sketch.</desc>
    <defs>
        <radialGradient cx="98.7985294%" cy="97.9036527%" fx="98.7985294%" fy="97.9036527%" r="325.466912%" gradientTransform="translate(0.987985,0.979037),scale(1.000000,0.723081),translate(-0.987985,-0.979037)" id="radialGradient-1">
            <stop stop-color="#BF360C" stop-opacity="0.2" offset="0%"></stop>
            <stop stop-color="#BF360C" stop-opacity="0.02" offset="100%"></stop>
        </radialGradient>
        <radialGradient cx="162.571513%" cy="157.70665%" fx="162.571513%" fy="157.70665%" r="262.641554%" gradientTransform="translate(1.625715,1.577067),scale(1.000000,0.696193),translate(-1.625715,-1.577067)" id="radialGradient-2">
            <stop stop-color="#263238" stop-opacity="0.2" offset="0%"></stop>
            <stop stop-color="#263238" stop-opacity="0.02" offset="100%"></stop>
        </radialGradient>
        <radialGradient cx="-1.24996094%" cy="0.78125%" fx="-1.24996094%" fy="0.78125%" r="167.932627%" gradientTransform="translate(-0.012500,0.007812),scale(1.000000,0.627731),translate(0.012500,-0.007812)" id="radialGradient-3">
            <stop stop-color="#FFFFFF" stop-opacity="0.1" offset="0%"></stop>
            <stop stop-color="#FFFFFF" stop-opacity="0" offset="100%"></stop>
        </radialGradient>
    </defs>
    <g id="Logo" stroke="none" stroke-width="1" fill="none" fill-rule="evenodd">
        <g id="Horizontal-Logo" transform="translate(-276.000000, -358.000000)">
            <g id="Logo" transform="translate(276.000000, 339.000000)">
                <path d="M434.68,80.2 L434.68,115 L423.64,115 L423.64,29.08 L452.92,29.08 C460.360037,29.08 466.679974,31.5599752 471.88,36.52 C477.160026,41.4800248 479.8,47.5199644 479.8,54.64 C479.8,61.9200364 477.160026,67.9999756 471.88,72.88 C466.759974,77.7600244 460.440038,80.2 452.92,80.2 L434.68,80.2 Z M434.68,39.64 L434.68,69.64 L453.16,69.64 C457.560022,69.64 461.199986,68.1600148 464.08,65.2 C467.040015,62.2399852 468.52,58.7200204 468.52,54.64 C468.52,50.63998 467.040015,47.1600148 464.08,44.2 C461.199986,41.1599848 457.560022,39.64 453.16,39.64 L434.68,39.64 Z M486.04,85.6 C486.04,76.5599548 488.879972,69.0800296 494.56,63.16 C500.320029,57.2399704 507.559956,54.28 516.28,54.28 C525.000044,54.28 532.199972,57.2399704 537.88,63.16 C543.640029,69.0800296 546.52,76.5599548 546.52,85.6 C546.52,94.7200456 543.640029,102.199971 537.88,108.04 C532.199972,113.96003 525.000044,116.92 516.28,116.92 C507.559956,116.92 500.320029,113.96003 494.56,108.04 C488.879972,102.11997 486.04,94.6400452 486.04,85.6 Z M497.08,85.6 C497.08,91.9200316 498.919982,97.0399804 502.6,100.96 C506.280018,104.88002 510.839973,106.84 516.28,106.84 C521.720027,106.84 526.279982,104.88002 529.96,100.96 C533.640018,97.0399804 535.48,91.9200316 535.48,85.6 C535.48,79.3599688 533.640018,74.2800196 529.96,70.36 C526.199981,66.35998 521.640027,64.36 516.28,64.36 C510.919973,64.36 506.360019,66.35998 502.6,70.36 C498.919982,74.2800196 497.08,79.3599688 497.08,85.6 Z M556.6,56.2 L567.16,56.2 L567.16,64.36 L567.64,64.36 C569.320008,61.4799856 571.899983,59.0800096 575.38,57.16 C578.860017,55.2399904 582.479981,54.28 586.24,54.28 C593.440036,54.28 598.979981,56.3399794 602.86,60.46 C606.740019,64.5800206 608.68,70.439962 608.68,78.04 L608.68,115 L597.64,115 L597.64,78.76 C597.399999,69.159952 592.560047,64.36 583.12,64.36 C578.719978,64.36 575.040015,66.1399822 572.08,69.7 C569.119985,73.2600178 567.64,77.5199752 567.64,82.48 L567.64,115 L556.6,115 L556.6,56.2 Z M644.92,115.96 C640.119976,115.96 636.140016,114.480015 632.98,111.52 C629.819984,108.559985 628.2,104.440026 628.12,99.16 L628.12,66.28 L617.8,66.28 L617.8,56.2 L628.12,56.2 L628.12,38.2 L639.16,38.2 L639.16,56.2 L653.56,56.2 L653.56,66.28 L639.16,66.28 L639.16,95.56 C639.16,99.4800196 639.919992,102.139993 641.44,103.54 C642.960008,104.940007 644.67999,105.64 646.6,105.64 C647.480004,105.64 648.339996,105.540001 649.18,105.34 C650.020004,105.139999 650.799996,104.880002 651.52,104.56 L655,114.4 C652.119986,115.440005 648.760019,115.96 644.92,115.96 Z M690.52,116.92 C681.879957,116.92 674.760028,113.96003 669.16,108.04 C663.559972,102.11997 660.76,94.6400452 660.76,85.6 C660.76,76.6399552 663.479973,69.1800298 668.92,63.22 C674.360027,57.2599702 681.319958,54.28 689.8,54.28 C698.520044,54.28 705.459974,57.0999718 710.62,62.74 C715.780026,68.3800282 718.36,76.2799492 718.36,86.44 L718.24,87.64 L672.04,87.64 C672.200001,93.4000288 674.119982,98.0399824 677.8,101.56 C681.480018,105.080018 685.879974,106.84 691,106.84 C698.040035,106.84 703.55998,103.320035 707.56,96.28 L717.4,101.08 C714.759987,106.040025 711.100023,109.919986 706.42,112.72 C701.739977,115.520014 696.44003,116.92 690.52,116.92 Z M672.88,78.52 L706.6,78.52 C706.279998,74.4399796 704.620015,71.0600134 701.62,68.38 C698.619985,65.6999866 694.600025,64.36 689.56,64.36 C685.399979,64.36 681.820015,65.6399872 678.82,68.2 C675.819985,70.7600128 673.840005,74.1999784 672.88,78.52 Z M757,115 L745.96,115 L722.2,56.2 L734.2,56.2 L751.48,101.8 L751.72,101.8 L769.24,56.2 L781,56.2 L757,115 Z M814.6,116.92 C805.959957,116.92 798.840028,113.96003 793.24,108.04 C787.639972,102.11997 784.84,94.6400452 784.84,85.6 C784.84,76.6399552 787.559973,69.1800298 793,63.22 C798.440027,57.2599702 805.399958,54.28 813.88,54.28 C822.600044,54.28 829.539974,57.0999718 834.7,62.74 C839.860026,68.3800282 842.44,76.2799492 842.44,86.44 L842.32,87.64 L796.12,87.64 C796.280001,93.4000288 798.199982,98.0399824 801.88,101.56 C805.560018,105.080018 809.959974,106.84 815.08,106.84 C822.120035,106.84 827.63998,103.320035 831.64,96.28 L841.48,101.08 C838.839987,106.040025 835.180023,109.919986 830.5,112.72 C825.819977,115.520014 820.52003,116.92 814.6,116.92 Z M796.96,78.52 L830.68,78.52 C830.359998,74.4399796 828.700015,71.0600134 825.7,68.38 C822.699985,65.6999866 818.680025,64.36 813.64,64.36 C809.479979,64.36 805.900015,65.6399872 802.9,68.2 C799.899985,70.7600128 797.920005,74.1999784 796.96,78.52 Z M878.92,106.84 C884.360027,106.84 888.799983,104.88002 892.24,100.96 C895.840018,97.0399804 897.64,91.9200316 897.64,85.6 C897.64,79.4399692 895.840018,74.36002 892.24,70.36 C888.719982,66.35998 884.280027,64.36 878.92,64.36 C873.639974,64.36 869.200018,66.35998 865.6,70.36 C861.999982,74.36002 860.2,79.4399692 860.2,85.6 C860.2,91.8400312 861.999982,96.9199804 865.6,100.84 C869.200018,104.84002 873.639974,106.84 878.92,106.84 Z M877.12,116.92 C869.439962,116.92 862.840028,113.88003 857.32,107.8 C851.879973,101.639969 849.16,94.2400432 849.16,85.6 C849.16,76.9599568 851.879973,69.5600308 857.32,63.4 C862.840028,57.3199696 869.439962,54.28 877.12,54.28 C881.440022,54.28 885.379982,55.1999908 888.94,57.04 C892.500018,58.8800092 895.23999,61.3199848 897.16,64.36 L897.64,64.36 L897.16,56.2 L897.16,29.08 L908.2,29.08 L908.2,115 L897.64,115 L897.64,106.84 L897.16,106.84 C895.23999,109.880015 892.500018,112.319991 888.94,114.16 C885.379982,116.000009 881.440022,116.92 877.12,116.92 Z M932.68,115 L921.64,115 L921.64,56.2 L932.2,56.2 L932.2,65.8 L932.68,65.8 C933.800006,62.6799844 936.099983,60.020011 939.58,57.82 C943.060017,55.619989 946.479983,54.52 949.84,54.52 C953.040016,54.52 955.759989,54.9999952 958,55.96 L954.64,66.64 C953.279993,66.0799972 951.120015,65.8 948.16,65.8 C943.999979,65.8 940.380015,67.4799832 937.3,70.84 C934.219985,74.2000168 932.68,78.1199776 932.68,82.6 L932.68,115 Z M973.24,97 C973.24,99.8800144 974.459988,102.27999 976.9,104.2 C979.340012,106.12001 982.199984,107.08 985.48,107.08 C990.120023,107.08 994.259982,105.360017 997.9,101.92 C1001.54002,98.4799828 1003.36,94.4400232 1003.36,89.8 C999.919983,87.0799864 995.120031,85.72 988.96,85.72 C984.479978,85.72 980.740015,86.7999892 977.74,88.96 C974.739985,91.1200108 973.24,93.799984 973.24,97 Z M987.52,54.28 C995.680041,54.28 1002.11998,56.4599782 1006.84,60.82 C1011.56002,65.1800218 1013.92,71.159962 1013.92,78.76 L1013.92,115 L1003.36,115 L1003.36,106.84 L1002.88,106.84 C998.319977,113.560034 992.240038,116.92 984.64,116.92 C978.159968,116.92 972.740022,115.000019 968.38,111.16 C964.019978,107.319981 961.84,102.520029 961.84,96.76 C961.84,90.6799696 964.139977,85.840018 968.74,82.24 C973.340023,78.639982 979.479962,76.84 987.16,76.84 C993.720033,76.84 999.119979,78.039988 1003.36,80.44 L1003.36,77.92 C1003.36,74.0799808 1001.84002,70.8200134 998.8,68.14 C995.759985,65.4599866 992.20002,64.12 988.12,64.12 C981.959969,64.12 977.080018,66.719974 973.48,71.92 L963.76,65.8 C969.120027,58.1199616 977.039948,54.28 987.52,54.28 Z" id="Pontevedra" fill="#757575"></path>
                <g id="GDG-Logo" transform="translate(0.000000, 19.000000)">
                    <g id="XMLID_50_">
                        <g id="XMLID_72_">
                            <path d="M68.5567901,50.1393023 L39.5716049,0.232325581 L0.812345679,0.232325581 L32.8049383,55.302093 L0.812345679,110.37186 L39.5716049,110.37186 L68.5567901,60.4648837 C70.4148148,57.2725581 70.4148148,53.3316279 68.5567901,50.1393023 Z" id="Shape"></path>
                            <polygon id="XMLID_80_" fill="#FFC107" fill-rule="nonzero" points="51.9296296 88.232093 42.7432099 72.4081395 20.6888889 110.37186 39.5716049 110.37186 52.1802469 88.6623256"></polygon>
                            <path d="M68.5567901,50.1393023 L39.5716049,0.232325581 L0.812345679,0.232325581 L32.8049383,55.302093 L0.812345679,110.37186 L39.5716049,110.37186 L68.5567901,60.4648837 C70.4148148,57.2725581 70.4148148,53.3316279 68.5567901,50.1393023 Z" id="Shape"></path>
                            <polygon id="Shape" fill="#0F9D58" fill-rule="nonzero" points="32.8049383 55.302093 42.7432099 72.4081395 20.6888889 110.37186 0.812345679 110.37186"></polygon>
                            <path d="M68.5567901,50.1393023 L39.5716049,0.232325581 L0.812345679,0.232325581 L32.8049383,55.302093 L0.812345679,110.37186 L39.5716049,110.37186 L68.5567901,60.4648837 C70.4148148,57.2725581 70.4148148,53.3316279 68.5567901,50.1393023 Z" id="Shape"></path>
                            <polygon id="Shape" fill="#BF360C" fill-rule="nonzero" opacity="0.2" points="39.5716049 109.511395 21.1901235 109.511395 20.6888889 110.37186 39.5716049 110.37186 52.1802469 88.6623256 51.9296296 88.232093"></polygon>
                            <path d="M68.5567901,50.1393023 L39.5716049,0.232325581 L0.812345679,0.232325581 L32.8049383,55.302093 L0.812345679,110.37186 L39.5716049,110.37186 L68.5567901,60.4648837 C70.4148148,57.2725581 70.4148148,53.3316279 68.5567901,50.1393023 Z" id="Shape"></path>
                            <polygon id="Shape" fill="#263238" fill-rule="nonzero" opacity="0.2" points="1.31358025 109.511395 0.812345679 110.37186 20.6888889 110.37186 21.1901235 109.511395"></polygon>
                            <path d="M68.5567901,50.1393023 L39.5716049,0.232325581 L0.812345679,0.232325581 L32.8049383,55.302093 L0.812345679,110.37186 L39.5716049,110.37186 L68.5567901,60.4648837 C70.4148148,57.2725581 70.4148148,53.3316279 68.5567901,50.1393023 Z" id="Shape"></path>
                            <polygon id="Shape" fill="#FFFFFF" fill-rule="nonzero" opacity="0.2" points="0.812345679 110.37186 1.31358025 110.37186 33.0555556 55.7323256 32.8049383 55.302093"></polygon>
                            <path d="M68.5567901,50.1393023 L39.5716049,0.232325581 L0.812345679,0.232325581 L32.8049383,55.302093 L0.812345679,110.37186 L39.5716049,110.37186 L68.5567901,60.4648837 C70.4148148,57.2725581 70.4148148,53.3316279 68.5567901,50.1393023 Z" id="Shape"></path>
                            <polygon id="XMLID_79_" fill="url(#radialGradient-1)" fill-rule="nonzero" points="52.1802469 88.6623256 52.1802469 88.6623256 42.7432099 72.4081395 40.4271605 76.392093"></polygon>
                            <path d="M68.5567901,50.1393023 L39.5716049,0.232325581 L0.812345679,0.232325581 L32.8049383,55.302093 L0.812345679,110.37186 L39.5716049,110.37186 L68.5567901,60.4648837 C70.4148148,57.2725581 70.4148148,53.3316279 68.5567901,50.1393023 Z" id="Shape"></path>
                            <polygon id="XMLID_78_" fill="url(#radialGradient-2)" fill-rule="nonzero" points="40.4271605 76.392093 42.7432099 72.4081395 32.8049383 55.302093 28.0604938 63.4765116"></polygon>
                            <path d="M68.5567901,50.1393023 L39.5716049,0.232325581 L0.812345679,0.232325581 L32.8049383,55.302093 L0.812345679,110.37186 L39.5716049,110.37186 L68.5567901,60.4648837 C70.4148148,57.2725581 70.4148148,53.3316279 68.5567901,50.1393023 Z" id="Shape"></path>
                            <g id="XMLID_75_" fill="#4285F4" fill-rule="nonzero">
                                <g id="XMLID_76_">
                                    <polygon id="XMLID_77_" points="20.6888889 0.232325581 0.812345679 0.232325581 52.1802469 88.6623256 62.1098765 71.5648837 62.1185185 71.5476744"></polygon>
                                </g>
                            </g>
                            <path d="M68.5567901,50.1393023 L39.5716049,0.232325581 L0.812345679,0.232325581 L32.8049383,55.302093 L0.812345679,110.37186 L39.5716049,110.37186 L68.5567901,60.4648837 C70.4148148,57.2725581 70.4148148,53.3316279 68.5567901,50.1393023 Z" id="Shape"></path>
                            <path d="M68.5567901,60.4648837 C70.4148148,57.2725581 70.4148148,53.3316279 68.5567901,50.1393023 L39.5716049,0.232325581 L20.6888889,0.232325581 L62.1185185,71.5476744 L68.5567901,60.4648837 Z" id="Shape" fill="#DB4437" fill-rule="nonzero"></path>
                            <path d="M68.5567901,50.1393023 L39.5716049,0.232325581 L0.812345679,0.232325581 L32.8049383,55.302093 L0.812345679,110.37186 L39.5716049,110.37186 L68.5567901,60.4648837 C70.4148148,57.2725581 70.4148148,53.3316279 68.5567901,50.1393023 Z" id="Shape"></path>
                            <polygon id="Shape" fill="#1A237E" fill-rule="nonzero" opacity="0.2" points="62.1185185 71.5476744 61.8679012 71.1260465 52.1802469 87.8018605 1.31358025 0.232325581 0.812345679 0.232325581 52.1802469 88.6623256 62.1098765 71.5648837"></polygon>
                            <path d="M68.5567901,50.1393023 L39.5716049,0.232325581 L0.812345679,0.232325581 L32.8049383,55.302093 L0.812345679,110.37186 L39.5716049,110.37186 L68.5567901,60.4648837 C70.4148148,57.2725581 70.4148148,53.3316279 68.5567901,50.1393023 Z" id="Shape"></path>
                            <path d="M39.5716049,1.0927907 L68.5567901,50.9997674 C69.4123457,52.4711628 69.8530864,54.0974419 69.9222222,55.7323256 C70,53.8048837 69.5592593,51.8602326 68.5567901,50.1393023 L39.5716049,0.232325581 L0.812345679,0.232325581 L1.31358025,1.0927907 L39.5716049,1.0927907 Z" id="Shape" fill="#FFFFFF" fill-rule="nonzero" opacity="0.2"></path>
                            <path d="M68.5567901,50.1393023 L39.5716049,0.232325581 L0.812345679,0.232325581 L32.8049383,55.302093 L0.812345679,110.37186 L39.5716049,110.37186 L68.5567901,60.4648837 C70.4148148,57.2725581 70.4148148,53.3316279 68.5567901,50.1393023 Z" id="Shape"></path>
                            <path d="M62.1185185,71.5476744 L68.5567901,60.4648837 C69.5592593,58.7439535 70,56.7993023 69.9222222,54.8718605 C69.8530864,56.5067442 69.4123457,58.1330233 68.5567901,59.6044186 L61.8679012,71.1260465 L62.1185185,71.5476744 Z" id="XMLID_74_" fill="#3E2723" fill-rule="nonzero" opacity="0.2"></path>
                            <path d="M68.5567901,50.1393023 L39.5716049,0.232325581 L0.812345679,0.232325581 L32.8049383,55.302093 L0.812345679,110.37186 L39.5716049,110.37186 L68.5567901,60.4648837 C70.4148148,57.2725581 70.4148148,53.3316279 68.5567901,50.1393023 Z" id="Shape"></path>
                            <path d="M68.5567901,50.1393023 L39.5716049,0.232325581 L0.812345679,0.232325581 L32.8049383,55.302093 L0.812345679,110.37186 L39.5716049,110.37186 L68.5567901,60.4648837 C70.4148148,57.2725581 70.4148148,53.3316279 68.5567901,50.1393023 Z" id="XMLID_73_" fill="url(#radialGradient-3)" fill-rule="nonzero"></path>
                        </g>
                    </g>
                    <g id="XMLID_8_" opacity="0.54" transform="translate(110.000000, 7.000000)">
                        <path d="M99.3411003,2.97954545 L125.682848,2.97954545 C152.506667,2.97954545 169.344725,20.8395455 169.344725,45.9022727 C169.344725,71.0772727 152.498058,88.825 125.682848,88.825 L99.3411003,88.825 L99.3411003,2.97954545 Z M126.139094,75.8186364 C144.810744,75.8186364 156.380453,65.4204545 156.380453,45.9022727 C156.380453,26.4963636 144.810744,15.9859091 126.139094,15.9859091 L112.305372,15.9859091 L112.305372,75.8186364 L126.139094,75.8186364 Z" id="XMLID_104_" fill="#000000" fill-rule="nonzero"></path>
                        <rect id="XMLID_103_" x="0.34433657" y="0.734090909" width="264.476311" height="93.6527273"></rect>
                        <path d="M88.5203236,42.0072727 L47.4840129,42.0072727 L47.4840129,54.7545455 L76.4168932,54.7545455 C75.4613592,61.2577273 73.2145631,66.3272727 69.8486731,69.7127273 C65.5616828,74.0136364 58.8643366,78.7463636 47.1138511,78.7463636 C28.9931392,78.7463636 14.8236893,64.0904545 14.8236893,45.9109091 C14.8236893,27.7313636 28.9931392,13.0754545 47.1138511,13.0754545 C56.8844013,13.0754545 64.0293851,16.9359091 69.2977346,21.8931818 L77.9750162,13.1877273 C70.614822,6.13181818 60.8442718,0.734090909 47.1138511,0.734090909 C22.2957929,0.734090909 1.42899676,21.0036364 1.42899676,45.9109091 C1.42899676,70.8095455 22.2957929,91.0877273 47.1138511,91.0877273 C60.5085437,91.0877273 70.614822,86.6831818 78.5259547,78.4181818 C86.6522977,70.2654545 89.1831715,58.805 89.1831715,49.5468182 C89.1831715,46.6795455 88.9593528,44.2095455 88.5203236,42.0072727 Z" id="XMLID_102_" fill="#000000" fill-rule="nonzero"></path>
                        <path d="M264.837864,42.0072727 L223.801553,42.0072727 L223.801553,54.7545455 L252.734434,54.7545455 C251.7789,61.2577273 249.532104,66.3272727 246.166214,69.7127273 C241.879223,74.0136364 235.181877,78.7463636 223.431392,78.7463636 C205.31068,78.7463636 191.14123,64.0904545 191.14123,45.9109091 C191.14123,27.7313636 205.31068,13.0754545 223.431392,13.0754545 C233.201942,13.0754545 240.346926,16.9359091 245.615275,21.8931818 L254.292557,13.1877273 C246.932362,6.13181818 237.161812,0.734090909 223.431392,0.734090909 C198.613333,0.734090909 177.746537,21.0036364 177.746537,45.9109091 C177.746537,70.8095455 198.613333,91.0877273 223.431392,91.0877273 C236.826084,91.0877273 246.932362,86.6831818 254.843495,78.4181818 C262.969838,70.2654545 265.500712,58.805 265.500712,49.5468182 C265.500712,46.6795455 265.276893,44.2095455 264.837864,42.0072727 Z" id="XMLID_86_" fill="#000000" fill-rule="nonzero"></path>
                    </g>
                </g>
            </g>
        </g>
    </g>
</svg>